<svg fill="none" viewBox="0 0 24 24" xmlns="http://www.w3.org/2000/svg">
  <path
    d="M14 18.1748V11.9998C14 11.7165 14.096 11.4788 14.288 11.2868C14.4793 11.0955 14.7167 10.9998 15 10.9998C15.2833 10.9998 15.521 11.0955 15.713 11.2868C15.9043 11.4788 16 11.7165 16 11.9998V18.1748L17.875 16.2998C18.0583 16.1165 18.2873 16.0205 18.562 16.0118C18.8373 16.0038 19.075 16.0998 19.275 16.2998C19.475 16.4831 19.5793 16.7121 19.588 16.9868C19.596 17.2621 19.5 17.4998 19.3 17.6998L15.7 21.2998C15.6 21.3998 15.4917 21.4705 15.375 21.5118C15.2583 21.5538 15.1333 21.5748 15 21.5748C14.8667 21.5748 14.7417 21.5538 14.625 21.5118C14.5083 21.4705 14.4 21.3998 14.3 21.2998L10.7 17.6998C10.5167 17.5165 10.425 17.2875 10.425 17.0128C10.425 16.7375 10.525 16.4998 10.725 16.2998C10.925 16.1165 11.1583 16.0205 11.425 16.0118C11.6917 16.0038 11.925 16.0998 12.125 16.2998L14 18.1748ZM7.99999 5.8248L6.12499 7.6998C5.90832 7.91647 5.66665 8.01647 5.39999 7.9998C5.13332 7.98314 4.90832 7.88314 4.72499 7.6998C4.52499 7.4998 4.42499 7.26214 4.42499 6.9868C4.42499 6.71214 4.51665 6.48314 4.69999 6.2998L8.29999 2.6998C8.39999 2.5998 8.50832 2.5288 8.62499 2.4868C8.74165 2.44547 8.86665 2.4248 8.99999 2.4248C9.13332 2.4248 9.25832 2.44547 9.37499 2.4868C9.49165 2.5288 9.59999 2.5998 9.69999 2.6998L13.3 6.2998C13.4833 6.48314 13.575 6.71647 13.575 6.9998C13.575 7.28314 13.4833 7.51647 13.3 7.6998C13.1 7.8998 12.8627 7.9998 12.588 7.9998C12.3127 7.9998 12.075 7.8998 11.875 7.6998L9.99999 5.8248V11.9998C9.99999 12.2831 9.90432 12.5205 9.71299 12.7118C9.52099 12.9038 9.28332 12.9998 8.99999 12.9998C8.71665 12.9998 8.47932 12.9038 8.28799 12.7118C8.09599 12.5205 7.99999 12.2831 7.99999 11.9998V5.8248Z"
    fill="#9fa4b1" />
</svg>