<svg fill="none" viewBox="0 0 24 24" xmlns="http://www.w3.org/2000/svg">
  <path
    d="M3.85792 22C3.36612 22 2.93352 21.8133 2.56011 21.4399C2.1867 21.0665 2 20.6339 2 20.1421V3.85792C2 3.34791 2.1867 2.91075 2.56011 2.54645C2.93352 2.18215 3.36612 2 3.85792 2H20.1421C20.6521 2 21.0893 2.18215 21.4536 2.54645C21.8179 2.91075 22 3.34791 22 3.85792V20.1421C22 20.6339 21.8179 21.0665 21.4536 21.4399C21.0893 21.8133 20.6521 22 20.1421 22H3.85792ZM3.85792 20.1421H20.1421V3.85792H3.85792V20.1421Z"
    fill="#8d929d" />
</svg>